<svg xmlns="http://www.w3.org/2000/svg" viewBox="0 0 1798.49 577.7"><defs><style>.cls-1{fill:#999;}.cls-2{fill:#3f3f3f;}</style></defs><g id="Layer_2" data-name="Layer 2"><g id="Board_1" data-name="Board 1"><g id="Logo_Group" data-name="Logo Group"><g id="Book_Group"><path class="cls-1" d="M305.85,547.29v28.38a50.32,50.32,0,0,0,28.29,0V548.06Z"/><path class="cls-1" d="M0,198.88V558.82a15.21,15.21,0,0,0,15.13,15.3H300.55v-25H10.61V177L1.09,194.75A8.38,8.38,0,0,0,0,198.88Z"/><path class="cls-1" d="M640,199.62V555.84a18.18,18.18,0,0,1-18.07,18.28H339.44v-25H622a7.41,7.41,0,0,0,7.36-7.46l-1.76-359.77-15.91-4.27,14.14.45,12.36,16.29A8.72,8.72,0,0,1,640,199.62Z"/><path class="cls-1" d="M622,176.64H582.65V77.91a7,7,0,0,0-2.1-5,6.65,6.65,0,0,0-5-2A413.68,413.68,0,0,0,489.2,83.13V7A7,7,0,0,0,486,1.07,6.77,6.77,0,0,0,479.32.7c-61.14,30-115.49,88-161.69,172.4C248.8,108.71,168.07,74.29,77.47,71a6.55,6.55,0,0,0-5,2,7,7,0,0,0-2.1,5v51c-9.57.68-19.28,1.57-29,2.78a6.93,6.93,0,0,0-6,7l.32,38H9.93V549.9H622a6.91,6.91,0,0,0,6.87-7V183.6A6.91,6.91,0,0,0,622,176.64ZM568.89,85.17V430c-83.24,4.17-158.5,32-224.33,82.76,41.36-67.89,88.6-115.19,140.77-140.77a7,7,0,0,0,3.87-6.26V97.42A396.55,396.55,0,0,1,568.89,85.17ZM475.45,18.36v343c-55.81,28.57-105.89,80.64-149.17,155V186C369.29,105.48,419.43,49.15,475.45,18.36ZM312.53,187.2V526.32c-.7-.4-1.42-.78-2.13-1.18-65.53-58.6-141.54-90.6-226.31-95.17V135.23c0-.09,0-.16,0-.26s0-.09,0-.14V85.19C170.25,90,247.06,124.31,312.53,187.2ZM70.34,142.85V436.63A6.92,6.92,0,0,0,77,443.58c63.44,2.34,121.87,20.56,174.56,54.15C190.84,475.57,124,468.39,51.92,476.42L49.09,144.79C56.23,144,63.32,143.37,70.34,142.85ZM23.68,190.56h12l2.51,293.73a7,7,0,0,0,2.35,5.18A6.91,6.91,0,0,0,46,491.14c95.35-11.95,181.09,3.2,255.38,44.84H23.68ZM615.13,536H337.76c68.77-58.22,148.83-89.29,238.24-92.4a6.94,6.94,0,0,0,6.65-7V190.56h32.48Z"/></g><g id="Text_Group" data-name="Text Group"><path class="cls-2" d="M151.82,378.1V148.76h53.1V331.58H316.29V378.1Z"/><path class="cls-2" d="M417.31,381.33q-21.71,0-38.69-7A83.08,83.08,0,0,1,350,355.23a81.66,81.66,0,0,1-17.64-27.69,93.56,93.56,0,0,1,0-65.88A81.66,81.66,0,0,1,350,234a83.22,83.22,0,0,1,28.66-19.1q17-7,38.69-7t38.52,7a82.75,82.75,0,0,1,46.3,46.79,91.29,91.29,0,0,1,0,65.88,82.75,82.75,0,0,1-46.3,46.79Q439,381.32,417.31,381.33Zm-37.88-86.57q0,12.86,5,22.58a37.9,37.9,0,0,0,13.44,15.05,35.48,35.48,0,0,0,19.43,5.33,35,35,0,0,0,19.26-5.48A37.58,37.58,0,0,0,450,317a49.25,49.25,0,0,0,4.85-22.26A50,50,0,0,0,450,272.19a36.37,36.37,0,0,0-13.44-15.06,37.77,37.77,0,0,0-38.69,0,37.86,37.86,0,0,0-13.44,15.06Q379.42,281.91,379.43,294.76Z"/><path class="cls-2" d="M532.24,317.77V210.45H584v95.77q0,15.28,6.15,23.39t17.49,8.11a39.7,39.7,0,0,0,13.59-2.34,40.55,40.55,0,0,0,12.63-7.67,52.84,52.84,0,0,0,11-13.77V210.45h51.8V320.82q0,7.65,2.43,10.66c1.62,2,4.48,3.23,8.58,3.66v43q-7.12,1.29-12.47,1.94a80.37,80.37,0,0,1-9.55.64q-13.59,0-21.69-5.59a23.87,23.87,0,0,1-10-15.81l-1-10.21a70.65,70.65,0,0,1-29,24.44q-17.32,7.82-38.69,7.82-25.92,0-39.5-16.29T532.24,317.77Z"/><path class="cls-2" d="M802.91,381.33a70.74,70.74,0,0,1-30.76-6.62,69.71,69.71,0,0,1-23.8-18.41A87.69,87.69,0,0,1,733,329a104.37,104.37,0,0,1,.33-67.83,88.88,88.88,0,0,1,16.35-27.94,73.09,73.09,0,0,1,24.93-18.74,75.49,75.49,0,0,1,31.89-6.62q19.1,0,33.67,7.91a60.59,60.59,0,0,1,23.31,22.45V210.45h45V367.14q0,25.64-12.46,44.22T861.35,440Q839.17,450.14,810,450.13q-27.19,0-46.79-8.88a102.8,102.8,0,0,1-34.15-25l27.84-28.11a67.82,67.82,0,0,0,23.31,17,71.4,71.4,0,0,0,29.79,6.3,63.75,63.75,0,0,0,23.31-4.16,35.93,35.93,0,0,0,17-13.39q6.31-9.22,6.31-24.76V352.58a51.85,51.85,0,0,1-22.5,21.32A68.53,68.53,0,0,1,802.91,381.33Zm17.8-41a36.08,36.08,0,0,0,11.5-1.78,39.75,39.75,0,0,0,9.87-4.85,45.33,45.33,0,0,0,8.42-7.42,36.11,36.11,0,0,0,6.15-9.53V281.19a45.7,45.7,0,0,0-23-25.84,35.76,35.76,0,0,0-15.54-3.55,33.7,33.7,0,0,0-15.21,3.55,34.57,34.57,0,0,0-12.15,10.18A52.16,52.16,0,0,0,780.24,297a45.84,45.84,0,0,0,3.08,17.12,44,44,0,0,0,8.58,13.73,37.79,37.79,0,0,0,13,9.21A39.46,39.46,0,0,0,820.71,340.31Z"/><path class="cls-2" d="M1107.89,378.1h-51.8V284.74q0-16.12-6.64-23.73t-17.64-7.6q-5.83,0-13.11,3.58a46.91,46.91,0,0,0-13.44,10.1,44.63,44.63,0,0,0-9.39,15.24V378.1h-51.8V142.3h51.8v96.75A64.1,64.1,0,0,1,1020.64,216a71.36,71.36,0,0,1,33.83-8.12q17.49,0,28,5.73a40.56,40.56,0,0,1,16,15.11,60.8,60.8,0,0,1,7.45,20.53,127,127,0,0,1,1.94,21.95Z"/><path class="cls-2" d="M1410.94,378.1h-51.8V284.74q0-16.12-6.15-23.73a19.52,19.52,0,0,0-15.87-7.6q-10.36,0-20.4,8.23a44.49,44.49,0,0,0-14.24,21.2V378.1h-51.8V284.74q0-16.44-6.16-23.89a19.67,19.67,0,0,0-15.86-7.44q-10,0-20.07,8.09A45.78,45.78,0,0,0,1194,282.33V378.1h-51.81V210.45h46.63v28.6A63,63,0,0,1,1214.25,216q16-8.12,37.4-8.12,21,0,32.37,9.71t14.57,22.74a66.3,66.3,0,0,1,25.74-24q16-8.43,36.1-8.43,16.18,0,26.23,5.89a39.8,39.8,0,0,1,15.21,15.43,67.49,67.49,0,0,1,7.13,20.52,123.66,123.66,0,0,1,1.94,21.48Z"/><path class="cls-2" d="M1434.25,328.17a46.68,46.68,0,0,1,9.39-29q9.39-12.4,25.9-19.58t37.88-7.16a117.22,117.22,0,0,1,20.4,1.78,78.91,78.91,0,0,1,17.48,5v-7.41q0-13.44-8.42-20.62t-25.57-7.18a73,73,0,0,0-26.71,4.84,146.58,146.58,0,0,0-26.39,13.89l-15.54-32.95a135.86,135.86,0,0,1,35.13-16.47,133.87,133.87,0,0,1,38.69-5.49q38.19,0,59.41,17.89t21.2,51.76v43.37q0,7.61,2.43,10.61t8.58,3.64v43q-6.48,1.29-12.14,1.94a88.72,88.72,0,0,1-9.87.64q-14.58,0-22.18-5.81a25.16,25.16,0,0,1-9.55-15.83l-1-7.43a76,76,0,0,1-27,22.13,74.6,74.6,0,0,1-32.86,7.59,64.56,64.56,0,0,1-30.27-7,54.65,54.65,0,0,1-21.21-19.1A49,49,0,0,1,1434.25,328.17Zm103,6.05A26.59,26.59,0,0,0,1543,328a11.93,11.93,0,0,0,2.27-6.53V306.83a78.42,78.42,0,0,0-14.41-3.88,84.46,84.46,0,0,0-14.73-1.41q-14.25,0-23.63,6.08t-9.39,16a17.61,17.61,0,0,0,3.24,10.27,22.8,22.8,0,0,0,8.9,7.47,30,30,0,0,0,13.44,2.8,45.49,45.49,0,0,0,15.54-2.8A42.11,42.11,0,0,0,1537.21,334.22Z"/><path class="cls-2" d="M1798.49,378.1h-51.81V284.74q0-16.44-6.31-23.89t-16.67-7.44a32.47,32.47,0,0,0-14.57,3.73,47.56,47.56,0,0,0-22.67,25.19V378.1h-51.8V210.45h46.62v28.6a64.07,64.07,0,0,1,16.19-16.86,72.2,72.2,0,0,1,22.34-10.66,98.54,98.54,0,0,1,27.52-3.66q16.51,0,26.71,5.89a40.63,40.63,0,0,1,15.54,15.43,62.07,62.07,0,0,1,7.13,20.52,134.9,134.9,0,0,1,1.78,21.48Z"/><path d="M1023.6,428.27h6l60.92,141.48h-7.39l-20.79-48.82H990.86l-20.79,48.82h-7.59ZM1059.78,515,1026.59,437,993.41,515Z"/><path d="M1163.61,570.74q-16.78,0-28.16-6.07a48.26,48.26,0,0,1-18.08-16.34,70.16,70.16,0,0,1-9.59-23,117.5,117.5,0,0,1-2.89-26.1V428.27h7v70.94a115.11,115.11,0,0,0,2.49,23.91,64.68,64.68,0,0,0,8.29,21,41.34,41.34,0,0,0,15.78,14.65q10,5.38,25,5.38,15.16,0,25.26-5.58a42.46,42.46,0,0,0,15.88-14.94,64.34,64.34,0,0,0,8.19-20.93,115.28,115.28,0,0,0,2.4-23.51V428.27h6.79v70.94a118.8,118.8,0,0,1-3,26.9,67.15,67.15,0,0,1-9.79,22.92,48.82,48.82,0,0,1-18,15.84Q1180,570.75,1163.61,570.74Z"/><path d="M1355.74,434.65h-53.12v135.1h-7V434.65H1242.5v-6.38h113.24Z"/><path d="M1486.56,428.27V569.75h-6.79V500.6H1385.5v69.15h-7V428.27h7v66h94.27v-66Z"/><path d="M1581.23,570.74a59.56,59.56,0,0,1-27-6.07,67,67,0,0,1-21-16.24A76.23,76.23,0,0,1,1514.92,499,74.32,74.32,0,0,1,1534,449.09a68.89,68.89,0,0,1,21.17-15.94,61.32,61.32,0,0,1,53,.3A65.84,65.84,0,0,1,1629.07,450a79.15,79.15,0,0,1,13.48,23.12,73.18,73.18,0,0,1,4.79,25.9,74.77,74.77,0,0,1-19,50.11A66.42,66.42,0,0,1,1607.3,565,59.7,59.7,0,0,1,1581.23,570.74ZM1521.91,499a69.43,69.43,0,0,0,16.68,45.23,59.15,59.15,0,0,0,18.77,14.55,55.39,55.39,0,0,0,48-.2,58.78,58.78,0,0,0,18.77-14.94A70.14,70.14,0,0,0,1640.35,499,68.84,68.84,0,0,0,1636,474.6a67.75,67.75,0,0,0-12.39-20.82,60.11,60.11,0,0,0-18.87-14.55,54.71,54.71,0,0,0-47.73.2,59.1,59.1,0,0,0-18.68,14.94,71.36,71.36,0,0,0-12.08,20.93A67.39,67.39,0,0,0,1521.91,499Z"/><path d="M1675.7,569.75V428.27H1734A36.17,36.17,0,0,1,1750.4,432a40.66,40.66,0,0,1,12.78,10,48.08,48.08,0,0,1,8.39,13.95,42.6,42.6,0,0,1,3,15.64,46.84,46.84,0,0,1-4.4,20.13A42.68,42.68,0,0,1,1758,507.18a33.72,33.72,0,0,1-18.18,7.17l35.56,55.4h-8l-35.16-54.6h-49.53v54.6Zm7-61h52.53a28.3,28.3,0,0,0,17.28-5.38,35.71,35.71,0,0,0,11.28-13.94,42,42,0,0,0,4-17.94,37.28,37.28,0,0,0-4.6-18,38,38,0,0,0-12.28-13.65,29.94,29.94,0,0,0-17.08-5.18h-51.13Z"/><path class="cls-2" d="M251.24,147.77a83.88,83.88,0,0,0,40.13,10.59c19.45,0,30.28-9.11,30.28-22.65,0-12.56-8.37-20-29.54-27.58-27.33-9.85-44.81-24.37-44.81-48.25,0-27.09,22.65-47.77,58.6-47.77,18,0,31.26,3.94,39.88,8.37L338.4,44.86a70.26,70.26,0,0,0-33-7.88c-19.21,0-27.58,10.34-27.58,19.94,0,12.8,9.6,18.71,31.76,27.33,28.81,10.83,42.84,25.36,42.84,49.24,0,26.59-20.19,49.73-63,49.73-17.48,0-35.7-4.92-44.81-10.34Z"/><path class="cls-2" d="M412.26,26.64V60.86h28.8V83.51h-28.8v52.93c0,14.53,3.94,22.16,15.51,22.16a45.2,45.2,0,0,0,11.82-1.47l.49,23.14c-4.43,1.72-12.31,2.95-21.91,2.95-11.08,0-20.44-3.69-26.1-9.85-6.4-6.89-9.36-17.72-9.36-33.48V83.51H365.48V60.86h17.23V33.78Z"/><path class="cls-2" d="M483.9,129.3c.74,21.67,17.73,31,36.93,31,14,0,24.13-2,33.24-5.42l4.43,20.93c-10.34,4.18-24.62,7.38-41.85,7.38-38.9,0-61.8-23.88-61.8-60.56,0-33.24,20.19-64.51,58.6-64.51,38.9,0,51.7,32,51.7,58.35a74.79,74.79,0,0,1-1,12.8Zm52.69-21.17c.25-11.08-4.68-29.3-24.86-29.3-18.72,0-26.59,17-27.83,29.3Z"/><path class="cls-2" d="M589.52,100.75c0-15.76-.49-28.56-1-39.89h26.59l1.48,18.47h.49C626,65.79,640,58.15,658.21,58.15c27.58,0,50.48,23.64,50.48,61.06,0,43.33-27.33,64.26-54.66,64.26-15,0-27.58-6.4-33.73-16h-.49v62H589.52Zm30.29,29.79a31.17,31.17,0,0,0,1,8.37,27.39,27.39,0,0,0,26.59,21.17c19.21,0,30.53-16,30.53-39.64,0-21.17-10.34-38.41-29.79-38.41C635.56,82,624,91.14,621,104.44a27.39,27.39,0,0,0-1.23,7.63Z"/><path class="cls-2" d="M733.55,6h30.53v71.4h.49a43.36,43.36,0,0,1,35.7-19.21c20.44,0,41.86,13.54,41.86,52v70.66H811.84V113.55c0-17.48-6.4-30.53-23.14-30.53-11.82,0-20.19,7.88-23.39,17a25.61,25.61,0,0,0-1.23,9.11v71.64H733.55Z"/></g></g></g></g></svg>